<svg width="461" height="73" viewBox="0 0 461 73" fill="none" xmlns="http://www.w3.org/2000/svg">
<path d="M0.40625 9.09375C0.40625 8.92708 0.489583 8.84375 0.65625 8.84375H1.34375L11.375 8.625C12.5833 8.58333 13.8958 8.5625 15.3125 8.5625H19.2188C22.8438 8.5625 25.5625 8.69792 27.375 8.96875C29.2083 9.23958 31 9.5625 32.75 9.9375C34.5208 10.2917 36.3958 11.1146 38.375 12.4062C40.375 13.6979 42.1042 15.2604 43.5625 17.0938C46.6458 21.0104 48.1875 25.2396 48.1875 29.7812C48.1875 34.3229 47 38.3958 44.625 42C41.2083 47.2292 36.2604 50.6458 29.7812 52.25C27.7188 52.75 25.6042 53 23.4375 53H0.65625C0.489583 53 0.40625 52.9167 0.40625 52.75V51.875C0.40625 51.7083 0.489583 51.625 0.65625 51.625H1.34375C5.13542 51.625 7.03125 50.4167 7.03125 48V13.75C7.03125 12.5833 6.58333 11.7083 5.6875 11.125C4.79167 10.5208 3.78125 10.2188 2.65625 10.2188H0.65625C0.489583 10.2188 0.40625 10.1354 0.40625 9.96875V9.09375ZM13.9062 10.0312C13.3854 10.0312 13.125 10.3125 13.125 10.875V49.0938C13.125 50.6354 14.5729 51.4375 17.4688 51.5C18.3229 51.5208 19.2188 51.5312 20.1562 51.5312C26.8021 51.5312 32.0208 49.6667 35.8125 45.9375C39.625 42.2083 41.5312 37.25 41.5312 31.0625C41.5312 24.8542 39.7708 19.8021 36.25 15.9062C32.75 11.9896 28.1354 10.0312 22.4062 10.0312H13.9062ZM53.1875 53C52.9792 52.9583 52.875 52.8125 52.875 52.5625C52.875 52.1875 53.3646 51.9375 54.3438 51.8125C56.5938 51.4792 57.7188 50.2917 57.7188 48.25V31.7188C57.7188 30.8438 57.2396 30.2396 56.2812 29.9062C55.8646 29.7604 55.4167 29.6458 54.9375 29.5625C54.4583 29.4583 54.0729 29.3646 53.7812 29.2812C53.5104 29.1979 53.3333 29.125 53.25 29.0625C53.1875 28.9792 53.1562 28.8229 53.1562 28.5938C53.1562 28.3438 53.3125 28.1354 53.625 27.9688L61.5938 24.2188C61.8438 24.0938 62 24.0312 62.0625 24.0312C62.4167 24.0312 62.5938 24.2812 62.5938 24.7812V48.25C62.5938 50.2917 63.7188 51.4792 65.9688 51.8125C66.9479 51.9375 67.4375 52.1562 67.4375 52.4688C67.4375 52.7812 67.3333 52.9583 67.125 53H53.1875ZM59.6875 15.25C58.8333 15.25 58.0729 14.9792 57.4062 14.4375C56.7604 13.8958 56.4375 13.1458 56.4375 12.1875C56.4375 11.2083 56.75 10.4375 57.375 9.875C58 9.3125 58.7396 9.03125 59.5938 9.03125C60.4688 9.03125 61.1979 9.36458 61.7812 10.0312C62.3854 10.6979 62.6875 11.4167 62.6875 12.1875C62.6875 12.9583 62.4062 13.6667 61.8438 14.3125C61.2812 14.9375 60.5625 15.25 59.6875 15.25ZM90.5 47.8438C90.5 48.3854 90.75 48.8229 91.25 49.1562C91.7708 49.4688 92.3646 49.625 93.0312 49.625C93.6979 49.625 94.25 49.4583 94.6875 49.125C95.1458 48.7708 95.4583 48.5938 95.625 48.5938C95.7917 48.5938 95.875 48.8229 95.875 49.2812C95.875 49.7188 95.6667 50.0938 95.25 50.4062C92.125 52.6979 90.0104 53.8438 88.9062 53.8438C87.5729 53.8438 86.4896 52.4583 85.6562 49.6875C85.5938 49.4792 85.5417 49.3854 85.5 49.4062C82.9167 51.3438 81.2917 52.5104 80.625 52.9062C78.9167 53.8854 77.1979 54.0417 75.4688 53.375C73.7604 52.7083 72.5208 51.6042 71.75 50.0625C71.375 49.2708 71.1875 48.4271 71.1875 47.5312C71.1875 45.7604 71.8438 44.3542 73.1562 43.3125C74.4688 42.2708 76.9688 41.2708 80.6562 40.3125C81.9062 39.9792 83.0208 39.5521 84 39.0312C84.9792 38.5104 85.4896 38.1771 85.5312 38.0312C85.5938 37.8854 85.625 37.75 85.625 37.625V31.625C85.625 29.2708 84.7083 27.6146 82.875 26.6562C82.2708 26.3438 81.5417 26.1875 80.6875 26.1875C79.8542 26.1875 79 26.5208 78.125 27.1875C77.2708 27.8542 76.8438 28.8021 76.8438 30.0312L77 31.25C76.875 31.5 76.125 31.9167 74.75 32.5C73.375 33.0833 72.5833 33.3958 72.375 33.4375C72.0417 33.4375 71.875 33.0417 71.875 32.25C71.875 31.4375 72.1146 30.5417 72.5938 29.5625C73.0729 28.5833 73.75 27.6875 74.625 26.875C76.6667 24.9792 79 24.0312 81.625 24.0312C84.25 24.0312 86.3854 24.7604 88.0312 26.2188C89.6771 27.6562 90.5 29.375 90.5 31.375V47.8438ZM76.0938 46.9375C76.0938 47.9375 76.4792 48.8125 77.25 49.5625C78.0208 50.2917 78.8958 50.6562 79.875 50.6562C80.875 50.6562 82.0833 50.2396 83.5 49.4062C84.9167 48.5521 85.625 47.6771 85.625 46.7812V40.4375C85.625 40.2083 85.5729 40.0938 85.4688 40.0938C85.3646 40.0938 85.2917 40.1042 85.25 40.125L78 43.5C77.25 44.0417 76.7396 44.5 76.4688 44.875C76.2188 45.25 76.0938 45.9375 76.0938 46.9375ZM117.875 30.5938C117.625 30.5521 117.26 30.4167 116.781 30.1875C115.052 29.3958 113.698 29 112.719 29C111.74 29 110.708 29.6146 109.625 30.8438C108.562 32.0521 108.031 33.1458 108.031 34.125V48.25C108.031 49.8125 108.938 50.8542 110.75 51.375C111.542 51.5833 112.281 51.7396 112.969 51.8438C113.656 51.9271 114.094 52.0104 114.281 52.0938C114.49 52.1771 114.594 52.3438 114.594 52.5938C114.594 52.8229 114.49 52.9583 114.281 53H98.625C98.4167 52.9583 98.3125 52.8125 98.3125 52.5625C98.3125 52.1875 98.8021 51.9375 99.7812 51.8125C102.031 51.4792 103.156 50.2917 103.156 48.25V31.7188C103.156 30.8438 102.677 30.2396 101.719 29.9062C101.302 29.7604 100.854 29.6458 100.375 29.5625C99.8958 29.4583 99.5104 29.3646 99.2188 29.2812C98.9479 29.1979 98.7708 29.125 98.6875 29.0625C98.625 28.9792 98.5938 28.8229 98.5938 28.5938C98.5938 28.3438 98.75 28.1354 99.0625 27.9688L107.031 24.2188C107.281 24.0938 107.438 24.0312 107.5 24.0312C107.854 24.0312 108.031 24.2812 108.031 24.7812V29.8438C108.031 30.0938 108.094 30.2188 108.219 30.2188C108.385 30.2188 108.812 29.7292 109.5 28.75C111.479 25.9792 113.115 24.5938 114.406 24.5938C115.135 24.5938 116.25 24.8854 117.75 25.4688C119.271 26.0521 120.031 26.5417 120.031 26.9375C120.031 27.4167 119.792 28.1458 119.312 29.125C118.833 30.1042 118.354 30.5938 117.875 30.5938ZM152.75 24.875C152.979 24.9375 153.094 25.0833 153.094 25.3125C153.094 25.5417 153.073 25.6979 153.031 25.7812C152.99 25.8438 152.885 25.9062 152.719 25.9688C152.573 26.0104 152.354 26.0521 152.062 26.0938C151.792 26.1354 151.354 26.2188 150.75 26.3438C150.146 26.4479 149.604 26.8646 149.125 27.5938C148.646 28.3229 148.135 29.3333 147.594 30.625L132.906 67.0312L130.875 71.3438C130.354 72.4479 129.26 73 127.594 73C126.865 73 126.281 72.7604 125.844 72.2812C125.406 71.8021 125.188 71.2292 125.188 70.5625C125.188 69.9167 125.344 69.4375 125.656 69.125C125.99 68.8333 126.375 68.5938 126.812 68.4062C127.25 68.2188 127.698 68.0417 128.156 67.875C128.635 67.7292 129.167 67.375 129.75 66.8125C130.333 66.2708 130.677 65.8646 130.781 65.5938C134.281 57.7604 136.031 53.6667 136.031 53.3125C136.031 52.9583 135.823 52.5208 135.406 52L125.094 30.4688C124.323 28.3646 123 27.0104 121.125 26.4062C120.979 26.3646 120.802 26.3333 120.594 26.3125C119.719 26.2292 119.281 25.9688 119.281 25.5312C119.281 25.0938 119.531 24.875 120.031 24.875H133.938C134.104 24.875 134.188 25.0417 134.188 25.375C134.188 25.6875 134.042 25.9062 133.75 26.0312C133.458 26.1354 132.812 26.1875 131.812 26.1875C130.208 26.1875 129.406 26.8125 129.406 28.0625L129.688 28.8125L137.781 46.1562C138.198 47.2188 138.615 47.1875 139.031 46.0625C139.073 45.9583 139.333 45.2812 139.812 44.0312C142.646 36.8438 144.229 32.6875 144.562 31.5625C144.917 30.4375 145.094 29.5938 145.094 29.0312C145.094 28.4688 144.792 27.875 144.188 27.25C143.604 26.625 142.792 26.3125 141.75 26.3125C140.729 26.3125 140.219 26.0104 140.219 25.4062C140.219 25.0521 140.448 24.875 140.906 24.875H152.75ZM211.125 50.3125C209.312 51.4167 207.333 52.2812 205.188 52.9062C203.042 53.5312 201.135 53.8438 199.469 53.8438C196.052 53.8438 192.792 53.2917 189.688 52.1875C185.438 50.6458 182.021 48.3646 179.438 45.3438C176.146 41.4896 174.5 36.6042 174.5 30.6875C174.5 26.4167 175.594 22.5312 177.781 19.0312C179.969 15.5104 182.99 12.7292 186.844 10.6875C190.719 8.64583 194.875 7.625 199.312 7.625C203.771 7.625 207.76 8.61458 211.281 10.5938C214.802 12.5729 217.625 15.2917 219.75 18.75C221.875 22.2083 222.938 25.9583 222.938 30C222.938 34.0208 221.885 37.8542 219.781 41.5C217.677 45.125 214.792 48.0625 211.125 50.3125ZM181.062 29.6875C181.062 33.1458 181.823 36.5833 183.344 40C184.885 43.3958 187.083 46.1667 189.938 48.3125C192.792 50.4583 196.094 51.5312 199.844 51.5312C205.177 51.5312 209.333 49.4896 212.312 45.4062C215 41.7188 216.344 37.0104 216.344 31.2812C216.344 25.5521 214.698 20.6146 211.406 16.4688C209.802 14.4479 207.833 12.8333 205.5 11.625C203.188 10.3958 200.844 9.78125 198.469 9.78125C196.115 9.78125 194.177 10.0417 192.656 10.5625C191.156 11.0833 189.792 11.8021 188.562 12.7188C187.333 13.6146 186.25 14.6875 185.312 15.9375C184.375 17.1875 183.594 18.5417 182.969 20C181.698 23 181.062 26.2292 181.062 29.6875ZM245.656 52.5C245.656 52.8333 245.469 53 245.094 53H227.938C227.729 52.9583 227.625 52.8125 227.625 52.5625C227.625 52.1875 228.115 51.9375 229.094 51.8125C231.344 51.4792 232.469 50.2917 232.469 48.25V29.3125C232.469 29.0833 232.344 28.9688 232.094 28.9688H228.688C228.438 28.9688 228.198 28.8958 227.969 28.75C227.74 28.5833 227.625 28.375 227.625 28.125C227.625 27.8542 227.75 27.6458 228 27.5C228.354 27.2917 229.188 27.0104 230.5 26.6562C231.812 26.3021 232.469 25.7188 232.469 24.9062V23.875C232.469 16.375 234.094 10.6042 237.344 6.5625C239.156 4.29167 241.917 2.54167 245.625 1.3125C246.75 0.9375 247.865 0.75 248.969 0.75C250.073 0.75 251.365 1.04167 252.844 1.625C254.323 2.1875 255.062 2.875 255.062 3.6875C255.062 3.85417 255.031 4 254.969 4.125C254.927 4.25 254.875 4.40625 254.812 4.59375L253.531 7.34375C253.365 7.67708 253.167 7.84375 252.938 7.84375C252.875 7.84375 252.427 7.52083 251.594 6.875C250.76 6.20833 249.875 5.60417 248.938 5.0625C248.021 4.5 246.938 4.21875 245.688 4.21875C243.25 4.21875 241.406 4.84375 240.156 6.09375C238.906 7.34375 238.125 8.76042 237.812 10.3438C237.5 11.9062 237.344 13.6354 237.344 15.5312V24.625C237.344 24.7917 237.448 24.875 237.656 24.875H243.75C244.333 24.875 244.708 24.9375 244.875 25.0625C245.062 25.1667 245.24 25.5417 245.406 26.1875C245.573 26.8125 245.656 27.3958 245.656 27.9375C245.656 28.4583 245.604 28.7604 245.5 28.8438C245.396 28.9271 245.177 28.9688 244.844 28.9688H237.75C237.479 28.9688 237.344 29.0729 237.344 29.2812V47.625C237.344 50.6042 239.927 52.0938 245.094 52.0938C245.469 52.1354 245.656 52.2708 245.656 52.5ZM279.688 52.75C279.688 52.9167 279.604 53 279.438 53H263.469C263.302 53 263.219 52.9167 263.219 52.75V52C263.219 51.8333 263.354 51.75 263.625 51.75C266.479 51.625 268.406 50.1042 269.406 47.1875L282.156 10.2812C282.177 10.2396 282.188 10.1875 282.188 10.125L281.844 9.09375C281.844 8.98958 281.885 8.9375 281.969 8.9375H288.219C288.26 8.95833 288.312 8.97917 288.375 9C288.458 9.02083 288.521 9.08333 288.562 9.1875L301.781 46.2812C302.073 46.8438 302.302 47.3542 302.469 47.8125C302.656 48.2708 302.865 48.6875 303.094 49.0625C303.594 49.9167 304.417 50.5729 305.562 51.0312C306.521 51.5104 307.396 51.75 308.188 51.75C308.354 51.75 308.438 51.8438 308.438 52.0312V52.75C308.438 52.9167 308.354 53 308.188 53H289.062C288.896 53 288.812 52.9167 288.812 52.75V52C288.812 51.8333 289.198 51.7292 289.969 51.6875C290.74 51.6458 291.375 51.6042 291.875 51.5625C294.771 51.25 296.219 50.2708 296.219 48.625C296.219 48.5 296.198 48.3542 296.156 48.1875L291.438 34.875C291.417 34.8333 291.375 34.7396 291.312 34.5938C291.062 33.8854 290.625 33.5312 290 33.5312H278.906C278.281 33.5312 277.792 33.875 277.438 34.5625C277.375 34.7083 277.344 34.7917 277.344 34.8125L272.656 48.5312V48.8125C272.656 49.3542 272.938 49.8438 273.5 50.2812C274.771 51.2604 276.479 51.75 278.625 51.75H279.438C279.604 51.75 279.688 51.8333 279.688 52V52.75ZM288.938 30.0625C289.312 30.0625 289.5 29.9062 289.5 29.5938C289.5 29.4271 289.458 29.2396 289.375 29.0312L284.719 16.2188C284.51 15.6562 284.354 15.375 284.25 15.375C284.146 15.375 283.979 15.6667 283.75 16.25L279.375 29.0312C279.292 29.2396 279.25 29.4688 279.25 29.7188C279.25 29.9479 279.406 30.0625 279.719 30.0625H288.938ZM320.094 38.0312C319.844 38.0312 319.719 38.5417 319.719 39.5625V48.25C319.719 50.2917 320.844 51.4792 323.094 51.8125C324.073 51.9375 324.562 52.1667 324.562 52.5C324.562 52.8333 324.458 53 324.25 53H310.312C310.104 52.9583 310 52.8125 310 52.5625C310 52.1875 310.49 51.9375 311.469 51.8125C313.719 51.4792 314.844 50.2917 314.844 48.25V9.28125C314.844 8.40625 314.365 7.80208 313.406 7.46875C312.99 7.32292 312.542 7.20833 312.062 7.125C311.583 7.02083 311.198 6.92708 310.906 6.84375C310.635 6.76042 310.458 6.6875 310.375 6.625C310.312 6.54167 310.281 6.38542 310.281 6.15625C310.281 5.90625 310.438 5.69792 310.75 5.53125L318.719 1.78125C318.969 1.65625 319.125 1.59375 319.188 1.59375C319.542 1.59375 319.719 1.84375 319.719 2.34375V33.5312C319.885 34.1354 320.104 34.4896 320.375 34.5938C320.646 34.6979 320.938 34.75 321.25 34.75C321.854 34.75 322.844 34.2812 324.219 33.3438C325.615 32.3854 326.875 31.3229 328 30.1562C329.125 28.9688 329.688 28.1562 329.688 27.7188C329.688 27.2604 329.49 26.9792 329.094 26.875C328.698 26.75 328.25 26.6667 327.75 26.625C327.271 26.5625 326.833 26.4792 326.438 26.375C326.042 26.25 325.844 25.9688 325.844 25.5312C325.844 25.0938 326.271 24.875 327.125 24.875H339.031C339.76 24.875 340.125 25.1146 340.125 25.5938C340.125 25.8438 339.885 26.0417 339.406 26.1875C338.927 26.3333 338 26.5625 336.625 26.875C335.25 27.1667 334.156 27.6354 333.344 28.2812L324.375 35.2812C324.375 35.5521 324.573 35.8854 324.969 36.2812L337.812 49.8125C338.646 50.6667 339.5 51.2292 340.375 51.5C341.25 51.75 341.833 51.9167 342.125 52C342.417 52.0833 342.562 52.2292 342.562 52.4375C342.562 52.8125 342.396 53 342.062 53H328.344C328.135 53 328.031 52.875 328.031 52.625C328.031 52.25 328.292 52.0104 328.812 51.9062C330.375 51.6146 331.156 51.0833 331.156 50.3125C331.156 50.0833 331 49.7812 330.688 49.4062C330.375 49.0312 330.083 48.6667 329.812 48.3125L320.156 38.0938C320.156 38.0729 320.146 38.0521 320.125 38.0312H320.094ZM360.219 31.625C360.219 32.0833 360.042 32.3125 359.688 32.3125C359.354 32.3125 359.094 32.0625 358.906 31.5625C358.406 30.1875 357.656 28.9688 356.656 27.9062C355.677 26.8438 354.458 26.3125 353 26.3125C351.083 26.3125 349.792 27.2708 349.125 29.1875C348.917 29.8333 348.812 30.5 348.812 31.1875C348.812 31.875 349.25 32.6458 350.125 33.5C351 34.3333 352.438 35.3333 354.438 36.5C356.438 37.6667 357.896 38.6562 358.812 39.4688C360.896 41.3229 361.938 43.4688 361.938 45.9062C361.938 48.3438 361.042 50.2812 359.25 51.7188C357.458 53.1354 355.375 53.8438 353 53.8438C351.729 53.8438 350.573 53.6667 349.531 53.3125C348.51 52.9792 347.917 52.8125 347.75 52.8125C347.604 52.8125 347.354 52.9792 347 53.3125C346.667 53.6667 346.396 53.8438 346.188 53.8438H345.656C345.531 53.8438 345.375 52.7188 345.188 50.4688C345 48.2188 344.906 46.8854 344.906 46.4688C344.906 46.0521 344.938 45.8229 345 45.7812C345.083 45.7396 345.208 45.7188 345.375 45.7188C345.542 45.7188 345.677 45.7708 345.781 45.875C345.906 45.9792 346.01 46.1146 346.094 46.2812C346.177 46.4271 346.24 46.5833 346.281 46.75C346.344 46.9167 346.479 47.2292 346.688 47.6875C348.104 50.7083 350.292 52.2188 353.25 52.2188C354.562 52.2188 355.615 51.7396 356.406 50.7812C357.198 49.8021 357.594 48.7188 357.594 47.5312C357.594 46.3438 357.281 45.3438 356.656 44.5312C356.031 43.7188 355.25 42.9792 354.312 42.3125C353.396 41.6458 352.396 41 351.312 40.375C347.104 37.9167 345 35.1979 345 32.2188C345 29.9896 345.958 28.0729 347.875 26.4688C349.792 24.8438 351.76 24.0312 353.781 24.0312C355.802 24.0312 357.292 24.25 358.25 24.6875C359.229 25.125 359.802 25.5 359.969 25.8125C360.135 26.1042 360.219 27.0833 360.219 28.75V31.625ZM374.969 28.8125C374.969 29.3125 375.042 29.5625 375.188 29.5625C375.333 29.5625 375.438 29.5312 375.5 29.4688C375.562 29.3854 376 28.8958 376.812 28C379.167 25.375 381.552 24.0625 383.969 24.0625C387.135 24.0625 389.458 24.7708 390.938 26.1875C392.75 27.9792 393.656 30.9896 393.656 35.2188V48.25C393.656 50.2917 394.781 51.4792 397.031 51.8125C398.01 51.9375 398.5 52.1562 398.5 52.4688C398.5 52.7812 398.396 52.9583 398.188 53H384.25C384.042 52.9583 383.938 52.8125 383.938 52.5625C383.938 52.1875 384.427 51.9375 385.406 51.8125C387.656 51.4792 388.781 50.2917 388.781 48.25V35.5312C388.781 32.4688 388.562 30.4792 388.125 29.5625C387.292 27.7292 385.552 26.8125 382.906 26.8125C381.281 26.8125 379.552 27.5104 377.719 28.9062C375.885 30.2812 374.969 31.8021 374.969 33.4688V48.25C374.969 50.2917 376.094 51.4792 378.344 51.8125C379.323 51.9375 379.812 52.1562 379.812 52.4688C379.812 52.7812 379.708 52.9583 379.5 53H365.562C365.354 52.9583 365.25 52.8125 365.25 52.5625C365.25 52.1875 365.74 51.9375 366.719 51.8125C368.969 51.4792 370.094 50.2917 370.094 48.25V9.28125C370.094 8.40625 369.615 7.80208 368.656 7.46875C368.24 7.32292 367.792 7.20833 367.312 7.125C366.833 7.02083 366.448 6.92708 366.156 6.84375C365.885 6.76042 365.708 6.6875 365.625 6.625C365.562 6.54167 365.531 6.38542 365.531 6.15625C365.531 5.90625 365.688 5.69792 366 5.53125L373.969 1.78125C374.219 1.65625 374.375 1.59375 374.438 1.59375C374.792 1.59375 374.969 1.84375 374.969 2.34375V28.8125ZM420.938 47.8438C420.938 48.3854 421.188 48.8229 421.688 49.1562C422.208 49.4688 422.802 49.625 423.469 49.625C424.135 49.625 424.688 49.4583 425.125 49.125C425.583 48.7708 425.896 48.5938 426.062 48.5938C426.229 48.5938 426.312 48.8229 426.312 49.2812C426.312 49.7188 426.104 50.0938 425.688 50.4062C422.562 52.6979 420.448 53.8438 419.344 53.8438C418.01 53.8438 416.927 52.4583 416.094 49.6875C416.031 49.4792 415.979 49.3854 415.938 49.4062C413.354 51.3438 411.729 52.5104 411.062 52.9062C409.354 53.8854 407.635 54.0417 405.906 53.375C404.198 52.7083 402.958 51.6042 402.188 50.0625C401.812 49.2708 401.625 48.4271 401.625 47.5312C401.625 45.7604 402.281 44.3542 403.594 43.3125C404.906 42.2708 407.406 41.2708 411.094 40.3125C412.344 39.9792 413.458 39.5521 414.438 39.0312C415.417 38.5104 415.927 38.1771 415.969 38.0312C416.031 37.8854 416.062 37.75 416.062 37.625V31.625C416.062 29.2708 415.146 27.6146 413.312 26.6562C412.708 26.3438 411.979 26.1875 411.125 26.1875C410.292 26.1875 409.438 26.5208 408.562 27.1875C407.708 27.8542 407.281 28.8021 407.281 30.0312L407.438 31.25C407.312 31.5 406.562 31.9167 405.188 32.5C403.812 33.0833 403.021 33.3958 402.812 33.4375C402.479 33.4375 402.312 33.0417 402.312 32.25C402.312 31.4375 402.552 30.5417 403.031 29.5625C403.51 28.5833 404.188 27.6875 405.062 26.875C407.104 24.9792 409.438 24.0312 412.062 24.0312C414.688 24.0312 416.823 24.7604 418.469 26.2188C420.115 27.6562 420.938 29.375 420.938 31.375V47.8438ZM406.531 46.9375C406.531 47.9375 406.917 48.8125 407.688 49.5625C408.458 50.2917 409.333 50.6562 410.312 50.6562C411.312 50.6562 412.521 50.2396 413.938 49.4062C415.354 48.5521 416.062 47.6771 416.062 46.7812V40.4375C416.062 40.2083 416.01 40.0938 415.906 40.0938C415.802 40.0938 415.729 40.1042 415.688 40.125L408.438 43.5C407.688 44.0417 407.177 44.5 406.906 44.875C406.656 45.25 406.531 45.9375 406.531 46.9375ZM459.812 24.875C460.042 24.9375 460.156 25.0833 460.156 25.3125C460.156 25.5417 460.135 25.6979 460.094 25.7812C460.052 25.8438 459.948 25.9062 459.781 25.9688C459.635 26.0104 459.417 26.0521 459.125 26.0938C458.854 26.1354 458.417 26.2188 457.812 26.3438C457.208 26.4479 456.667 26.8646 456.188 27.5938C455.708 28.3229 455.198 29.3333 454.656 30.625L439.969 67.0312L437.938 71.3438C437.417 72.4479 436.323 73 434.656 73C433.927 73 433.344 72.7604 432.906 72.2812C432.469 71.8021 432.25 71.2292 432.25 70.5625C432.25 69.9167 432.406 69.4375 432.719 69.125C433.052 68.8333 433.438 68.5938 433.875 68.4062C434.312 68.2188 434.76 68.0417 435.219 67.875C435.698 67.7292 436.229 67.375 436.812 66.8125C437.396 66.2708 437.74 65.8646 437.844 65.5938C441.344 57.7604 443.094 53.6667 443.094 53.3125C443.094 52.9583 442.885 52.5208 442.469 52L432.156 30.4688C431.385 28.3646 430.062 27.0104 428.188 26.4062C428.042 26.3646 427.865 26.3333 427.656 26.3125C426.781 26.2292 426.344 25.9688 426.344 25.5312C426.344 25.0938 426.594 24.875 427.094 24.875H441C441.167 24.875 441.25 25.0417 441.25 25.375C441.25 25.6875 441.104 25.9062 440.812 26.0312C440.521 26.1354 439.875 26.1875 438.875 26.1875C437.271 26.1875 436.469 26.8125 436.469 28.0625L436.75 28.8125L444.844 46.1562C445.26 47.2188 445.677 47.1875 446.094 46.0625C446.135 45.9583 446.396 45.2812 446.875 44.0312C449.708 36.8438 451.292 32.6875 451.625 31.5625C451.979 30.4375 452.156 29.5938 452.156 29.0312C452.156 28.4688 451.854 27.875 451.25 27.25C450.667 26.625 449.854 26.3125 448.812 26.3125C447.792 26.3125 447.281 26.0104 447.281 25.4062C447.281 25.0521 447.51 24.875 447.969 24.875H459.812Z" fill="white"/>
</svg>
